# xmcd CD database file
#
# Track frame offsets:
#	150
#	26336
#	46226
#	66022
#	91907
#	114181
#	135650
#	159683
#	180545
#	194081
#
# Disc length: 2953 seconds
#
# Revision: 0
# Processed by: cddbd v1.5.2PL0 Copyright (c) Steve Scherf et al.
# Submitted via: CDex 1.95
#
DISCID=7e0b870a
DTITLE=Ralando Sanchez and Salsa Hawaii - Hawaii -- Salsa
DYEAR=2000
DGENRE=Salsa
TTITLE0=Sueno paraiso
TTITLE1=Todo todo todo
TTITLE2=Solo tu
TTITLE3=To sonrisa
TTITLE4=Que bonito
TTITLE5=Ya me enamore
TTITLE6=All Day Music
TTITLE7=Yo soy la bomba
TTITLE8=Sigue regando
TTITLE9=Voy a bailar
EXTD=YEAR: 2000
EXTT0=
EXTT1=
EXTT2=
EXTT3=
EXTT4=
EXTT5=
EXTT6=
EXTT7=
EXTT8=
EXTT9=
PLAYORDER=
